# xmcd
#
# Track frame offsets:
#	150
#	12158
#	22712
#	35579
#	46793
#	59449
#	72075
#	85807
#	96248
#	107695
#	121483
#	134957
#	146294
#	159752
#	171643
#	185184
#	197185
#	210337
#	221794
#	232821
#
# Disc length: 3281 seconds
#
# Revision: 1
# Processed by: cddbd v1.5.2PL0 Copyright (c) Steve Scherf et al.
# Submitted via: audiograbber 1.83.01
#
DISCID=1b0ccf14
DTITLE=Dvorana Slavy - Dvorana slavy 2
DYEAR=1900
DGENRE=
TTITLE0=Hank Williams - Take These Chains From My Heart
TTITLE1=Jim Reeves - He'll Have To Go
TTITLE2=Bobby Bare - Detroit City
TTITLE3=Stonewall Jackson - Waterloo
TTITLE4=Bill Anderson - Still
TTITLE5=Hank Snow - I've Been Everywhere
TTITLE6=Jimmy Dean - Big Bad John
TTITLE7=Browns - Looking Back To See
TTITLE8=Jean Shepard, Ferlin Husky - A Dear John Letter
TTITLE9=Ernest Tubb, Red Foley - Goodnight Irene
TTITLE10=Pee Wee King, Golden West Cowboys - Tennessee Waltz
TTITLE11=Carl Smith - Hey Joe
TTITLE12=Johnny Horton - Whispering Pines
TTITLE13=Johnny Cash - Ring Of Fire
TTITLE14=Leroy Van Dyke - The Auctioneer
TTITLE15=Tennessee Ernie Ford - Sixteen Tons
TTITLE16=Goerge Jones - Seasons Of My Heart
TTITLE17=Don Gibson - Oh, Lonesome Me
TTITLE18=Hank Locklin - Send Me The Pillow That You Dream On
TTITLE19=Hank Williams - You're Gonna Change (Or I'm Gonna Leave)
EXTD=corrected closing bracket
EXTT0=
EXTT1=
EXTT2=
EXTT3=
EXTT4=
EXTT5=
EXTT6=
EXTT7=
EXTT8=
EXTT9=
EXTT10=
EXTT11=
EXTT12=
EXTT13=
EXTT14=
EXTT15=
EXTT16=
EXTT17=
EXTT18=
EXTT19=
PLAYORDER=
